<svg width="309" height="108" viewBox="0 0 309 108" fill="none" xmlns="http://www.w3.org/2000/svg">
<path d="M141.219 55.9834L97.123 108.591L98.0594 109.376L142.156 56.7682L141.219 55.9834Z" fill="#120283"/>
<path d="M16.5985 85.1397L16.231 86.3048L97.2641 111.87L97.6317 110.705L16.5985 85.1397Z" fill="#120283"/>
<path d="M17.6109 100.275C25.6233 99.6188 31.5868 92.5918 30.9309 84.5795C30.275 76.5671 23.248 70.6036 15.2357 71.2595C7.22331 71.9154 1.25975 78.9424 1.91567 86.9548C2.57159 94.9671 9.59861 100.931 17.6109 100.275Z" fill="#353A85"/>
<path d="M66.9923 25.2769L65.8501 25.7106L97.1038 108.03L98.246 107.596L66.9923 25.2769Z" fill="#120283"/>
<path d="M68.12 25.0333L67.6499 26.161L141.455 56.9283L141.925 55.8007L68.12 25.0333Z" fill="#120283"/>
<path d="M214.132 19.1716L139.872 55.7285L140.411 56.8246L214.672 20.2677L214.132 19.1716Z" fill="#120283"/>
<path d="M142.01 55.8468L141.371 56.8876L219.437 104.877L220.077 103.836L142.01 55.8468Z" fill="#120283"/>
<path d="M290.618 46.6582L219.375 103.898L220.14 104.851L291.383 47.6106L290.618 46.6582Z" fill="#120283"/>
<path d="M150.996 77.7704C164.806 74.2991 173.187 60.2903 169.715 46.4808C166.244 32.6713 152.235 24.2905 138.426 27.7617C124.616 31.233 116.235 45.2418 119.707 59.0514C123.178 72.8609 137.187 81.2417 150.996 77.7704Z" fill="#353A85"/>
<path d="M292.217 65.1061C302.188 64.4316 309.724 55.8015 309.05 45.8303C308.375 35.8591 299.745 28.3227 289.774 28.9972C279.803 29.6717 272.267 38.3018 272.941 48.273C273.616 58.2442 282.246 65.7806 292.217 65.1061Z" fill="#353A85"/>
<path d="M87.7729 27.9256C88.8636 17.2062 81.058 7.6322 70.3386 6.54147C59.6192 5.45075 50.0452 13.2563 48.9544 23.9758C47.8637 34.6952 55.6693 44.2692 66.3887 45.3599C77.1081 46.4506 86.6821 38.6451 87.7729 27.9256Z" fill="#120283"/>
<path d="M226.51 27.3376C230.716 20.6526 228.707 11.8232 222.022 7.61665C215.337 3.41011 206.508 5.41933 202.301 12.1044C198.095 18.7894 200.104 27.6188 206.789 31.8254C213.474 36.0319 222.303 34.0227 226.51 27.3376Z" fill="#BF0830"/>
<path d="M245.693 122.681C260.677 107.696 260.677 83.4019 245.693 68.4177C230.709 53.4334 206.415 53.4334 191.43 68.4177C176.446 83.4019 176.446 107.696 191.43 122.681C206.415 137.665 230.709 137.665 245.693 122.681Z" fill="#120283"/>
<path d="M98.1116 123.212C109.985 121.683 118.371 110.817 116.842 98.9435C115.312 87.0697 104.447 78.6839 92.5728 80.2134C80.6989 81.7429 72.3131 92.6085 73.8427 104.482C75.3722 116.356 86.2377 124.742 98.1116 123.212Z" fill="#BF0830"/>
<path d="M15.666 98.631C17.3602 98.7408 19.0594 98.5156 20.6664 97.9681C22.2734 97.4207 23.7567 96.5618 25.0315 95.4405C24.7118 94.2278 24.3166 93.0364 23.8482 91.873C23.0892 89.9996 21.6748 88.4662 19.8688 87.5585L19.9142 87.4957C20.6187 86.2662 20.96 84.8622 20.8985 83.4465C20.8985 82.1235 20.6472 80.7587 19.8513 79.6452C19.4279 79.0115 18.837 78.5078 18.1444 78.19C17.4517 77.8722 16.6845 77.7528 15.928 77.8451C15.1716 77.9373 14.4555 78.2376 13.8595 78.7126C13.2636 79.1875 12.811 79.8185 12.5523 80.5353C11.9938 81.8792 12.0531 83.3278 12.1614 84.759C12.2324 85.7781 12.5192 86.7704 13.0026 87.6702C11.8672 88.4045 10.8768 89.3417 10.0809 90.4349C9.15238 91.6287 9.19078 91.6845 8.60783 93.0948C8.3216 93.7929 8.03885 94.491 7.79102 95.2904C9.95927 97.2678 12.7373 98.4463 15.666 98.631Z" fill="white"/>
<path d="M67.625 42.7416C69.864 42.8887 72.11 42.5923 74.2341 41.8693C76.3583 41.1463 78.3187 40.0109 80.003 38.5283C79.5834 36.9237 79.0622 35.3474 78.4426 33.8089C77.439 31.3334 75.5693 29.3074 73.1821 28.1086C73.1821 28.0772 73.224 28.0527 73.2415 28.0248C74.2503 26.3982 74.5575 24.5132 74.54 22.6736C74.54 20.9283 74.2119 19.1201 73.1437 17.6435C72.5755 16.858 71.8182 16.2285 70.942 15.8136C70.0657 15.3987 69.0989 15.2116 68.1311 15.2699C65.9774 15.4618 64.246 17.0536 63.5095 18.8269C62.7729 20.6001 62.8497 22.534 62.9963 24.412C63.087 25.7571 63.4668 27.0668 64.1099 28.2517C62.608 29.2206 61.298 30.4584 60.2457 31.903C59.0204 33.4842 59.0693 33.5576 58.2979 35.4181C57.9209 36.3361 57.5439 37.2821 57.2192 38.3223C60.083 40.938 63.7542 42.4971 67.625 42.7416Z" fill="white"/>
<path d="M94.245 120.992C96.6536 121.149 99.0694 120.829 101.354 120.05C103.639 119.272 105.747 118.05 107.558 116.454C107.105 114.729 106.544 113.034 105.879 111.379C104.799 108.717 102.788 106.539 100.221 105.249C100.238 105.218 100.263 105.19 100.284 105.159C101.369 103.413 101.701 101.382 101.68 99.4059C101.663 97.5244 101.331 95.5661 100.179 93.9988C99.5679 93.1524 98.7527 92.4741 97.8093 92.0268C96.8659 91.5795 95.8248 91.3777 94.7826 91.4401C92.4682 91.6496 90.5937 93.36 89.8153 95.2799C89.0369 97.1997 89.1172 99.2697 89.2603 101.284C89.3597 102.733 89.7679 104.145 90.4576 105.424C88.8427 106.466 87.4344 107.797 86.3037 109.351C84.9842 111.051 85.0401 111.128 84.2093 113.131C83.8009 114.116 83.3959 115.135 83.0469 116.255C86.1318 119.063 90.082 120.734 94.245 120.992Z" fill="white"/>
<path d="M290.083 61.881C292.162 62.0167 294.247 61.7409 296.218 61.0695C298.19 60.398 300.01 59.344 301.574 57.9679C301.182 56.4787 300.697 55.0156 300.122 53.5871C299.188 51.2896 297.451 49.4093 295.235 48.2952C295.235 48.2708 295.274 48.2464 295.288 48.2184C296.227 46.7105 296.509 44.9616 296.495 43.2547C296.495 41.628 296.192 39.956 295.2 38.5876C294.673 37.8571 293.97 37.2715 293.156 36.8853C292.341 36.499 291.443 36.3245 290.544 36.378C288.547 36.5596 286.941 38.0361 286.257 39.6837C285.573 41.3313 285.643 43.122 285.779 44.8639C285.87 46.1152 286.227 47.3326 286.826 48.4349C285.432 49.3353 284.216 50.4842 283.238 51.8243C282.103 53.2904 282.149 53.3602 281.433 55.0881C281.084 55.9363 280.735 56.816 280.431 57.7829C283.089 60.2072 286.493 61.6528 290.083 61.881Z" fill="white"/>
<path d="M143.436 74.999C146.34 75.1886 149.254 74.8031 152.009 73.8644C154.765 72.9258 157.308 71.4525 159.493 69.5291C158.946 67.4465 158.269 65.4003 157.465 63.403C156.16 60.1906 153.734 57.561 150.637 56.0027C150.66 55.9653 150.686 55.9291 150.714 55.8945C152.023 53.8001 152.421 51.3357 152.4 48.948C152.4 46.6756 151.974 44.3368 150.588 42.4205C149.202 40.5041 146.678 39.1008 144.078 39.3347C141.285 39.5895 139.037 41.6525 138.081 43.9529C137.124 46.2532 137.236 48.77 137.425 51.2135C137.545 52.9625 138.038 54.6656 138.87 56.2087C137.034 57.3187 135.407 58.9454 133.854 60.949C132.3 62.9527 132.332 63.0958 131.33 65.5148C130.838 66.7017 130.352 67.9304 129.934 69.2848C133.653 72.6702 138.416 74.6859 143.436 74.999Z" fill="white"/>
<path d="M213.665 31.6029C215.329 31.7103 216.997 31.488 218.575 30.9489C220.153 30.4098 221.609 29.5644 222.859 28.4612C222.546 27.2745 222.159 26.1086 221.7 24.9706C220.955 23.1321 219.567 21.6273 217.794 20.7363C217.807 20.7146 217.821 20.6936 217.836 20.6735C218.529 19.4679 218.864 18.0902 218.803 16.7011C218.803 15.3991 218.559 14.0622 217.756 12.9661C217.339 12.3474 216.759 11.8561 216.08 11.5465C215.401 11.2369 214.65 11.121 213.909 11.2117C213.169 11.3024 212.468 11.5961 211.884 12.0603C211.3 12.5245 210.855 13.1412 210.6 13.8422C210.052 15.1582 210.108 16.5964 210.216 17.9892C210.285 18.9902 210.567 19.9649 211.043 20.8481C209.928 21.5663 208.955 22.4847 208.174 23.5568C207.263 24.7332 207.301 24.7855 206.729 26.1713C206.446 26.8485 206.167 27.5676 205.926 28.3286C208.057 30.2702 210.787 31.4254 213.665 31.6029Z" fill="white"/>
<path d="M216.489 130.134C221.189 130.443 225.903 129.821 230.361 128.303C234.819 126.786 238.935 124.403 242.47 121.292C241.585 117.925 240.489 114.616 239.189 111.386C237.082 106.192 233.16 101.94 228.151 99.4233C228.19 99.3639 228.239 99.3081 228.274 99.2488C230.392 95.8384 231.038 91.8799 231.007 88.0192C230.975 84.347 230.309 80.5666 228.075 77.4669C225.841 74.3671 221.753 72.0982 217.55 72.4787C213.033 72.8871 209.399 76.2242 207.857 79.9453C206.314 83.6663 206.46 87.726 206.775 91.66C206.966 94.4874 207.763 97.2407 209.11 99.734C206.139 101.528 203.525 104.157 201.001 107.413C198.432 110.726 198.537 110.883 196.92 114.789C196.124 116.713 195.336 118.699 194.651 120.884C200.665 126.364 208.369 129.627 216.489 130.134Z" fill="white"/>
</svg>
